<svg width="27" height="31" viewBox="0 0 27 31" fill="none" xmlns="http://www.w3.org/2000/svg">
<g clip-path="url(#clip0_142_2619)">
<path d="M15.1759 2.65525V3.69688C19.435 4.36742 22.6955 8.02656 22.6955 12.4425V14.3882C22.6955 17.0331 23.6061 19.6023 25.2686 21.6704L26.1439 22.754C26.4846 23.1734 26.5493 23.7502 26.3143 24.2337C26.0793 24.7172 25.5858 25.026 25.0453 25.026H1.54665C1.00442 25.026 0.510653 24.7172 0.275901 24.2337C0.0410898 23.7502 0.107121 23.1734 0.445737 22.754L1.32165 21.6704C2.9883 19.6023 3.89652 17.0331 3.89652 14.3882V12.4425C3.89652 8.02656 7.15696 4.36742 11.4161 3.69688V2.65525C11.4161 1.62584 12.2562 0.791016 13.296 0.791016C14.3358 0.791016 15.1759 1.62584 15.1759 2.65525ZM12.826 6.38371C9.45396 6.38371 6.71636 9.09849 6.71636 12.4425V14.3882C6.71636 17.1788 5.90096 19.8994 4.38471 22.2297H22.2079C20.6922 19.8994 19.8756 17.1788 19.8756 14.3882V12.4425C19.8756 9.09849 17.138 6.38371 13.766 6.38371H12.826ZM17.0558 26.8902C17.0558 27.8282 16.6622 28.8302 15.9572 29.5293C15.2523 30.2284 14.2418 30.6187 13.296 30.6187C12.2973 30.6187 11.3397 30.2284 10.6348 29.5293C9.92981 28.8302 9.53621 27.8282 9.53621 26.8902H17.0558Z" fill="#3E3E3E"/>
</g>
<defs>
<clipPath id="clip0_142_2619">
<rect width="26.3185" height="29.8277" fill="white" transform="translate(0.132812 0.791016)"/>
</clipPath>
</defs>
</svg>
