<svg width="31" height="32" viewBox="0 0 31 32" fill="none" xmlns="http://www.w3.org/2000/svg">
<path d="M20.3445 0C20.2793 0 20.214 0.0184482 20.1562 0.052269L11.4911 5.13256C11.3744 5.20054 11.3027 5.32729 11.3027 5.46428V15.6266C11.3027 15.7636 11.3744 15.8903 11.4911 15.9583L20.1562 21.0386C20.214 21.0728 20.2796 21.0892 20.3445 21.0892C20.4095 21.0892 20.4747 21.0728 20.5329 21.0386L29.198 15.9583C29.3147 15.8903 29.3863 15.7636 29.3863 15.6266V5.46428C29.3863 5.32729 29.3147 5.20055 29.198 5.13256L20.5329 0.052269C20.4747 0.0184482 20.4098 0 20.3445 0ZM20.3445 0.825021L28.2168 5.44031C28.1128 5.25754 28.0365 5.54587 28.2168 5.44031C28.2868 5.56364 28.5753 5.74172 28.6346 6.08021C28.5751 6.1154 28.6985 6.08021 28.6346 6.08021V15.4038L20.7226 20.0431C19.9691 20.0431 20.5075 20.0431 20.2996 20.0431C20.0917 20.0431 20.7226 20.0431 19.9691 20.0431L12.0572 15.4038V6.17466C12.1167 6.20917 11.9707 6.17466 12.0346 6.17466C12.0346 5.74172 12.3242 5.61031 12.3942 5.48733C12.1458 5.69279 12.6205 5.35463 12.3942 5.48733L20.3445 0.825021ZM20.3445 2.33908C19.7212 2.33908 19.2143 2.85424 19.2143 3.48693C19.2143 4.11962 19.7212 4.63478 20.3445 4.63478C20.9675 4.63478 21.4748 4.11962 21.4748 3.48693C21.4748 2.85424 20.9675 2.33908 20.3445 2.33908ZM20.3445 3.10431C20.5524 3.10431 20.7213 3.2758 20.7213 3.48693C20.7213 3.69806 20.5524 3.86955 20.3445 3.86955C20.1366 3.86955 19.9678 3.69806 19.9678 3.48693C19.9678 3.2758 20.1366 3.10431 20.3445 3.10431ZM18.2636 3.97272C18.2004 3.97443 18.1385 3.99253 18.084 4.02499C17.9044 4.13055 17.8425 4.36388 17.9457 4.54664C17.9955 4.63478 18.0779 4.69901 18.1745 4.72532C18.271 4.75162 18.3739 4.73795 18.4607 4.68705C18.6404 4.58149 18.7023 4.3485 18.599 4.1654C18.5304 4.04344 18.4015 3.96964 18.2636 3.97272ZM22.405 3.97579C22.2771 3.98228 22.1611 4.05437 22.0975 4.1671C22.0474 4.2549 22.0336 4.35944 22.0598 4.45782C22.0857 4.55587 22.149 4.63956 22.2358 4.69012C22.4157 4.795 22.6455 4.73214 22.7494 4.54971C22.7992 4.46157 22.813 4.35704 22.7871 4.25899C22.7609 4.1606 22.6976 4.07725 22.6108 4.02634C22.5486 3.98979 22.4769 3.97238 22.405 3.97579ZM16.9581 4.73625C16.8949 4.7383 16.833 4.7564 16.7785 4.78886C16.5988 4.89407 16.5369 5.12741 16.6402 5.31017C16.7441 5.49294 16.9739 5.5558 17.1539 5.45092C17.3335 5.34536 17.3954 5.11203 17.2921 4.92927C17.2238 4.80765 17.0957 4.73385 16.9581 4.73625ZM23.7101 4.73932C23.5823 4.74581 23.4666 4.81789 23.4027 4.93063C23.3526 5.01877 23.3391 5.1233 23.365 5.22135C23.3909 5.3194 23.4545 5.40309 23.5409 5.45365C23.6277 5.50455 23.7307 5.51856 23.8272 5.49191C23.9241 5.46561 24.0062 5.40138 24.0563 5.31324C24.1061 5.22544 24.1199 5.12091 24.094 5.02252C24.0677 4.92447 24.0045 4.84078 23.9177 4.79022C23.8548 4.75332 23.7828 4.73556 23.7101 4.73932ZM20.3445 5.35219C20.1366 5.35219 19.9678 5.52368 19.9678 5.73481V7.02478H19.7427C18.7305 7.02478 17.9057 7.85629 17.906 8.87639C17.906 9.89647 18.7299 10.7266 19.7427 10.7269H19.9678V12.8881H18.2828C18.0746 12.8881 17.9061 13.0596 17.9061 13.2707C17.9061 13.4818 18.0746 13.6533 18.2828 13.6533H19.9678V15.372C19.9678 15.5831 20.1366 15.7546 20.3445 15.7546C20.5524 15.7546 20.7213 15.5831 20.7213 15.372V13.6533H20.9568C21.9589 13.6533 22.7743 12.8235 22.7743 11.8058C22.7743 10.8134 21.9979 10.0081 21.0304 9.96748C21.0176 9.96612 21.0062 9.95997 20.9934 9.95997H20.7213V7.79002H22.3975C22.6054 7.79002 22.7743 7.61853 22.7743 7.4074C22.7743 7.19594 22.6054 7.02479 22.3975 7.02479H20.7213V5.73482C20.7213 5.52369 20.5524 5.35219 20.3445 5.35219ZM15.6542 5.50148C15.591 5.50319 15.5294 5.52061 15.4746 5.55238C15.2949 5.65794 15.233 5.89127 15.3363 6.07404C15.3861 6.16217 15.4685 6.2264 15.5651 6.25271C15.6616 6.27901 15.7645 6.26535 15.8513 6.21444C16.031 6.10923 16.0929 5.87589 15.9896 5.69279C15.9206 5.57151 15.7921 5.49806 15.6542 5.50148ZM25.0159 5.50148C24.8881 5.50831 24.7724 5.58039 24.7085 5.69279C24.6052 5.8759 24.6671 6.10922 24.8467 6.21444C25.0267 6.31932 25.2565 6.25646 25.3604 6.07403C25.4637 5.89127 25.4018 5.65794 25.2221 5.55238C25.1596 5.51582 25.0879 5.49806 25.0159 5.50148ZM19.743 7.79002H19.9681V9.96172H19.743C19.1459 9.96172 18.6598 9.47491 18.6598 8.8764C18.6598 8.27822 19.1459 7.79002 19.743 7.79002ZM13.9561 8.46097C13.7478 8.46097 13.5793 8.84359 13.5793 8.84359C13.5793 8.84359 13.619 9.04241 13.6896 9.11416C13.6896 9.11416 13.8562 9.22621 13.9561 9.22621C14.056 9.22621 14.1518 9.1859 14.2225 9.11416C14.2931 9.04243 14.3328 8.94506 14.3328 8.84359C14.3328 8.74213 14.2931 8.64477 14.2225 8.57302C14.1519 8.50127 14.056 8.46097 13.9561 8.46097ZM26.7659 8.46097C26.5577 8.46097 26.3891 8.63212 26.3891 8.84359C26.3891 8.94506 26.4288 9.04241 26.4995 9.11416C26.5701 9.18591 26.666 9.22621 26.7659 9.22621C26.8658 9.22621 26.9617 9.1859 27.0323 9.11416C27.103 9.04243 27.1427 8.94506 27.1427 8.84359C27.1427 8.74213 27.103 8.64477 27.0323 8.57302C26.9617 8.50127 26.8658 8.46097 26.7659 8.46097ZM13.9561 9.99145C13.7478 9.99145 13.5793 10.1626 13.5793 10.3741C13.5793 10.4755 13.619 10.5729 13.6896 10.6446C13.7603 10.7164 13.8562 10.7567 13.9561 10.7567C14.056 10.7567 14.1518 10.7164 14.2225 10.6446C14.2931 10.5729 14.3328 10.4755 14.3328 10.3741C14.3328 10.2726 14.2931 10.1752 14.2225 10.1035C14.1519 10.0317 14.056 9.99145 13.9561 9.99145ZM26.7659 9.99145C26.5577 9.99145 26.3891 10.1626 26.3891 10.3741C26.3891 10.4755 26.4288 10.5729 26.4995 10.6446C26.5701 10.7164 26.666 10.7567 26.7659 10.7567C26.8658 10.7567 26.9617 10.7164 27.0323 10.6446C27.103 10.5729 27.1427 10.4755 27.1427 10.3741C27.1427 10.2726 27.103 10.1752 27.0323 10.1035C26.9617 10.0317 26.8658 9.99145 26.7659 9.99145ZM20.7216 10.727H20.957C21.544 10.727 22.021 11.2114 22.021 11.8075C22.021 12.4036 21.544 12.888 20.957 12.888H20.7216V10.727ZM13.9561 11.5219C13.7478 11.5219 13.5793 11.6931 13.5793 11.9045C13.5793 12.006 13.619 12.1034 13.6896 12.1751C13.7603 12.2469 13.8562 12.2872 13.9561 12.2872C14.056 12.2872 14.1518 12.2468 14.2225 12.1751C14.2931 12.1034 14.3328 12.006 14.3328 11.9045C14.3328 11.8031 14.2931 11.7057 14.2225 11.634C14.1519 11.5622 14.056 11.5219 13.9561 11.5219ZM26.7659 11.5219C26.5577 11.5219 26.3891 11.6931 26.3891 11.9045C26.3891 12.006 26.4288 12.1034 26.4995 12.1751C26.5701 12.2469 26.666 12.2872 26.7659 12.2872C26.8658 12.2872 26.9617 12.2468 27.0323 12.1751C27.103 12.1034 27.1427 12.006 27.1427 11.9045C27.1427 11.8031 27.103 11.7057 27.0323 11.634C26.9617 11.5622 26.8658 11.5219 26.7659 11.5219ZM13.8674 13.0538C13.7937 13.0589 13.72 13.0715 13.6467 13.0913C13.355 13.1709 13.1125 13.3609 12.9611 13.6263C12.6496 14.1743 12.835 14.878 13.3746 15.194C13.5485 15.2958 13.7422 15.3481 13.938 15.3481C14.0362 15.3481 14.1338 15.3344 14.231 15.3078C14.5227 15.2282 14.7669 15.0383 14.9183 14.7728C15.069 14.507 15.1087 14.1989 15.0303 13.9027C14.9533 13.6075 14.7662 13.3595 14.5048 13.2065C14.3087 13.0917 14.0887 13.0391 13.8674 13.0538ZM26.8219 13.0538C26.6012 13.0391 26.3819 13.0917 26.1861 13.2065C25.6465 13.5225 25.4598 14.2255 25.7713 14.7742C25.922 15.0396 26.1669 15.2296 26.4586 15.3092C26.5558 15.3362 26.654 15.3495 26.7529 15.3495C26.9487 15.3495 27.1408 15.2969 27.315 15.194C27.5764 15.041 27.7641 14.794 27.8418 14.4978C27.9202 14.2016 27.8792 13.8911 27.7285 13.625C27.5771 13.3592 27.3342 13.1699 27.0429 13.0914C26.9699 13.0715 26.8956 13.0589 26.8219 13.0538ZM13.9397 13.8176C14.0046 13.8176 14.0692 13.8347 14.1281 13.8685C14.3081 13.9741 14.3703 14.2088 14.2663 14.3916C14.1624 14.5743 13.932 14.6385 13.7527 14.532H13.7513C13.572 14.4264 13.5111 14.1917 13.6144 14.0089C13.6642 13.9201 13.7453 13.8579 13.8425 13.8309C13.8748 13.8227 13.9074 13.8176 13.9397 13.8176ZM26.7495 13.8176C26.8797 13.8176 27.0062 13.8849 27.0762 14.0076C27.1801 14.1903 27.1196 14.425 26.9393 14.5306H26.9379C26.8511 14.5818 26.7489 14.5948 26.6523 14.5695C26.5551 14.5426 26.474 14.4797 26.4243 14.3916C26.3203 14.2088 26.3825 13.9741 26.5625 13.8685C26.6214 13.834 26.6853 13.8176 26.7495 13.8176ZM16.0151 15.2466C15.8866 15.2525 15.7702 15.3245 15.706 15.438C15.6027 15.6207 15.6646 15.854 15.8442 15.9593C15.931 16.0102 16.034 16.0238 16.1305 15.9975C16.227 15.9712 16.3095 15.907 16.3592 15.8189C16.4625 15.6361 16.4006 15.4028 16.221 15.2972C16.1584 15.2607 16.0871 15.2429 16.0151 15.2466ZM24.6612 15.2466C24.598 15.248 24.5364 15.2654 24.4816 15.2972C24.3945 15.3478 24.3309 15.4311 24.3046 15.5295C24.2784 15.6276 24.2919 15.7321 24.3416 15.8206C24.3918 15.9084 24.4739 15.9729 24.5707 15.9992C24.6673 16.0255 24.7702 16.0119 24.857 15.961C24.9434 15.9101 25.007 15.8267 25.0329 15.7283C25.0588 15.6303 25.0454 15.5257 24.9953 15.4379C24.9266 15.317 24.7985 15.2436 24.6612 15.2466ZM23.3543 16.0102C23.2911 16.0122 23.2292 16.03 23.1747 16.0624C22.9951 16.168 22.9332 16.4013 23.0364 16.5841C23.0862 16.6722 23.1686 16.7365 23.2652 16.7628C23.3617 16.7891 23.4646 16.7754 23.5514 16.7245C23.7311 16.6193 23.793 16.386 23.6897 16.2032C23.6211 16.0812 23.4926 16.0071 23.3543 16.0102ZM17.3174 16.0119C17.1892 16.0184 17.0735 16.0905 17.0096 16.2032C16.9595 16.291 16.946 16.3955 16.9719 16.4936C16.9978 16.592 17.0614 16.6753 17.1478 16.7262C17.2346 16.7771 17.3376 16.7908 17.4341 16.7645C17.531 16.7382 17.6131 16.6736 17.6632 16.5858C17.713 16.4973 17.7264 16.3928 17.7002 16.2948C17.674 16.1964 17.6104 16.113 17.5232 16.0625C17.4607 16.0259 17.3894 16.0081 17.3174 16.0119ZM18.6269 16.774C18.4988 16.7799 18.382 16.8523 18.3178 16.9654C18.268 17.0531 18.2542 17.1577 18.2805 17.2561C18.3064 17.3541 18.3696 17.4378 18.4564 17.4884C18.5429 17.5393 18.6458 17.5529 18.7427 17.5266C18.8392 17.5003 18.9216 17.4361 18.9714 17.348C19.0215 17.2598 19.035 17.1553 19.0091 17.0572C18.9832 16.9592 18.9199 16.8755 18.8332 16.8249C18.7706 16.788 18.6989 16.7706 18.6269 16.774ZM22.0487 16.774C21.9855 16.7758 21.9239 16.7939 21.8691 16.8263C21.6894 16.9319 21.6275 17.1649 21.7308 17.348C21.7806 17.4361 21.863 17.5003 21.9595 17.5266C22.0564 17.5529 22.1594 17.5393 22.2458 17.4884C22.4258 17.3828 22.4877 17.1495 22.3844 16.9667C22.3158 16.8448 22.1869 16.771 22.0487 16.774Z" fill="white"/>
<path d="M3.7152 28.1799H0.5V18.5762H3.7152C4.12363 18.5762 4.48629 18.939 4.48629 19.3468V27.4096C4.48629 27.8626 4.17739 28.1751 3.72579 28.1799H3.7152ZM21.4599 26.5413C21.7875 26.5413 22.143 26.4904 22.4543 26.2739L29.3135 22.7729L29.3259 22.7666L29.3379 22.7596C29.653 22.5759 30.125 22.6883 30.3496 23.0889C30.5336 23.5026 30.4002 23.8941 30.0564 24.0944L30.0858 24.1448L30.0433 24.1023L20.2662 30.2105C18.465 31.3358 16.306 31.3335 14.6489 30.4829L14.6404 30.4785L14.6317 30.4744C12.7409 29.5935 11.4121 28.912 10.3655 28.3753C9.80652 28.0886 9.32806 27.8433 8.88748 27.6308C7.80645 27.1096 7.02094 26.8245 6.02315 26.7395L6.02335 20.0911H10.4118C12.0995 20.0911 12.918 20.8117 13.8681 21.6481L13.9006 21.6768C14.3838 22.102 14.9197 22.5696 15.6077 22.9222C16.3063 23.2803 17.1426 23.5118 18.2335 23.5118H21.4599C21.8684 23.5118 22.231 23.8746 22.231 24.2823C22.231 24.6901 21.8683 25.0529 21.4599 25.0529L14.8602 25.0527H14.8602C14.6735 25.0527 14.4788 25.117 14.3295 25.2662C14.1802 25.4155 14.1158 25.6102 14.1158 25.797C14.1158 25.9838 14.1802 26.1786 14.3295 26.3278C14.4788 26.477 14.6735 26.5413 14.8602 26.5413H21.4599Z" stroke="white"/>
</svg>
