<svg width="34" height="34" viewBox="0 0 34 34" fill="none" xmlns="http://www.w3.org/2000/svg">
<path d="M14.3158 5.1365C14.3158 3.79753 13.7839 2.51339 12.8371 1.56659C11.8903 0.619797 10.6062 0.0878906 9.26718 0.0878906C7.92821 0.0878906 6.64407 0.619797 5.69728 1.56659C4.75048 2.51339 4.21857 3.79753 4.21857 5.1365C4.21857 6.47548 4.75048 7.75961 5.69728 8.70641C6.64407 9.65321 7.92821 10.1851 9.26718 10.1851C10.6062 10.1851 11.8903 9.65321 12.8371 8.70641C13.7839 7.75961 14.3158 6.47548 14.3158 5.1365ZM6.05443 5.1365C6.05443 4.7146 6.13753 4.29682 6.29899 3.90703C6.46044 3.51725 6.69709 3.16307 6.99543 2.86474C7.29376 2.56641 7.64793 2.32976 8.03772 2.16831C8.42751 2.00685 8.84528 1.92375 9.26718 1.92375C9.68909 1.92375 10.1069 2.00685 10.4967 2.16831C10.8864 2.32976 11.2406 2.56641 11.5389 2.86474C11.8373 3.16307 12.0739 3.51725 12.2354 3.90703C12.3968 4.29682 12.4799 4.7146 12.4799 5.1365C12.4799 5.98858 12.1415 6.80575 11.5389 7.40826C10.9364 8.01077 10.1193 8.34926 9.26718 8.34926C8.41511 8.34926 7.59793 8.01077 6.99543 7.40826C6.39292 6.80575 6.05443 5.98858 6.05443 5.1365ZM2.84168 12.021H10.5211C10.22 12.5901 9.99602 13.2069 9.86384 13.8568H2.84168C2.59823 13.8568 2.36475 13.9535 2.1926 14.1257C2.02046 14.2978 1.92375 14.5313 1.92375 14.7748V15.6927C1.92375 18.0059 3.94136 20.4916 7.60757 21.0718C7.01642 21.4756 6.52441 22.0136 6.17376 22.6396C2.3001 21.5913 0.0878906 18.6062 0.0878906 15.6927V14.7748C0.0878906 14.0444 0.378021 13.344 0.894457 12.8275C1.41089 12.3111 2.11133 12.021 2.84168 12.021ZM12.7168 12.021C13.642 10.9011 15.0428 10.1851 16.6106 10.1851C17.7101 10.1832 18.7799 10.541 19.657 11.204C20.5341 11.8669 21.1702 12.7986 21.4683 13.8568C21.734 14.8014 21.719 15.8028 21.4252 16.739C21.1314 17.6752 20.5714 18.5056 19.8136 19.1289C19.0558 19.7522 18.1329 20.1414 17.1576 20.2491C16.1824 20.3568 15.1968 20.1782 14.3213 19.7353C13.6472 19.3922 13.0588 18.902 12.5996 18.301C12.1404 17.6999 11.8221 17.0034 11.6682 16.2628C11.5144 15.5223 11.5289 14.7566 11.7107 14.0224C11.8925 13.2882 12.2369 12.6042 12.7186 12.021H12.7168ZM13.7081 13.8568C13.5273 14.2382 13.4234 14.6515 13.4023 15.0731C13.3812 15.4946 13.4433 15.9162 13.5852 16.3138C13.727 16.7113 13.9458 17.0771 14.2289 17.3901C14.5121 17.7031 14.8542 17.9572 15.2356 18.1381C15.617 18.3189 16.0302 18.4228 16.4518 18.4439C16.8734 18.465 17.295 18.4028 17.6925 18.261C18.0901 18.1192 18.4558 17.9004 18.7688 17.6172C19.0818 17.3341 19.336 16.992 19.5168 16.6106C19.882 15.8401 19.9261 14.9561 19.6395 14.153C19.3528 13.35 18.759 12.6937 17.9884 12.3285C17.2179 11.9633 16.3339 11.9192 15.5308 12.2058C14.7278 12.4924 14.0715 13.0863 13.7063 13.8568H13.7081ZM27.0475 22.6396C26.6978 22.0132 26.2069 21.477 25.6137 21.0736C29.278 20.4916 31.2975 18.004 31.2975 15.6927V14.7748C31.2975 14.5313 31.2008 14.2978 31.0286 14.1257C30.8565 13.9535 30.623 13.8568 30.3796 13.8568H23.3574C23.2277 13.2167 23.007 12.5985 22.702 12.021H30.3796C31.1099 12.021 31.8103 12.3111 32.3268 12.8275C32.8432 13.344 33.1334 14.0444 33.1334 14.7748V15.6927C33.1334 18.6062 30.9193 21.5895 27.0475 22.6396ZM24.8481 22.7993C24.3471 22.3594 23.7029 22.1173 23.0361 22.1182H10.1851C9.82321 22.1172 9.46468 22.1878 9.13014 22.3258C8.7956 22.4639 8.49164 22.6667 8.23573 22.9226C7.97982 23.1785 7.77702 23.4825 7.63897 23.817C7.50092 24.1516 7.43036 24.5101 7.43133 24.872V25.7899C7.43133 29.4084 10.846 33.1334 16.6106 33.1334C22.3752 33.1334 25.7899 29.4084 25.7899 25.7899V24.872C25.7899 24.0458 25.4264 23.3042 24.8481 22.7975V22.7993ZM9.26718 24.872C9.26718 24.6285 9.36389 24.3951 9.53604 24.2229C9.70819 24.0508 9.94166 23.9541 10.1851 23.9541H23.0361C23.2796 23.9541 23.5131 24.0508 23.6852 24.2229C23.8573 24.3951 23.9541 24.6285 23.9541 24.872V25.7899C23.9541 28.4299 21.3251 31.2975 16.6106 31.2975C11.8961 31.2975 9.26718 28.4299 9.26718 25.7899V24.872ZM23.9541 0.0878906C25.293 0.0878906 26.5772 0.619797 27.524 1.56659C28.4708 2.51339 29.0027 3.79753 29.0027 5.1365C29.0027 6.47548 28.4708 7.75961 27.524 8.70641C26.5772 9.65321 25.293 10.1851 23.9541 10.1851C22.6151 10.1851 21.3309 9.65321 20.3841 8.70641C19.4373 7.75961 18.9054 6.47548 18.9054 5.1365C18.9054 3.79753 19.4373 2.51339 20.3841 1.56659C21.3309 0.619797 22.6151 0.0878906 23.9541 0.0878906ZM23.9541 1.92375C23.102 1.92375 22.2848 2.26223 21.6823 2.86474C21.0798 3.46725 20.7413 4.28443 20.7413 5.1365C20.7413 5.98858 21.0798 6.80575 21.6823 7.40826C22.2848 8.01077 23.102 8.34926 23.9541 8.34926C24.8061 8.34926 25.6233 8.01077 26.2258 7.40826C26.8283 6.80575 27.1668 5.98858 27.1668 5.1365C27.1668 4.28443 26.8283 3.46725 26.2258 2.86474C25.6233 2.26223 24.8061 1.92375 23.9541 1.92375Z" fill="white"/>
</svg>
