<svg width="30" height="29" viewBox="0 0 30 29" fill="none" xmlns="http://www.w3.org/2000/svg">
<path d="M7.9997 17.107H17.3295V15.3186H7.9997V17.107ZM7.9997 13.232H22.3074V11.4436H7.9997V13.232ZM7.9997 9.35703H22.3074V7.56857H7.9997V9.35703ZM3.23047 26.6157V4.55799C3.23047 4.10094 3.40931 3.6886 3.76701 3.32097C4.1247 2.95335 4.54201 2.76953 5.01893 2.76953H25.2882C25.7452 2.76953 26.1576 2.95335 26.5252 3.32097C26.8928 3.6886 27.0766 4.10094 27.0766 4.55799V20.058C27.0766 20.515 26.8928 20.9274 26.5252 21.295C26.1576 21.6626 25.7452 21.8465 25.2882 21.8465H7.9997L3.23047 26.6157ZM5.01893 22.2936L7.25451 20.058H25.2882V4.55799H5.01893V22.2936ZM5.01893 4.55799V22.2936V4.55799Z" fill="#8E8E8E"/>
</svg>
