<svg width="21" height="15" viewBox="0 0 21 15" fill="none" xmlns="http://www.w3.org/2000/svg">
<path d="M0.345703 14.7691V12.5852C0.345703 12.0431 0.485097 11.5514 0.763885 11.11C1.04267 10.6686 1.42988 10.3394 1.9255 10.1226C3.05614 9.62698 4.07449 9.27075 4.98055 9.05392C5.88661 8.83708 6.81978 8.72867 7.78005 8.72867C8.74032 8.72867 9.66961 8.83708 10.5679 9.05392C11.4662 9.27075 12.4807 9.62698 13.6114 10.1226C14.107 10.3394 14.4981 10.6686 14.7846 11.11C15.0711 11.5514 15.2144 12.0431 15.2144 12.5852V14.7691H0.345703ZM16.6083 14.7691V12.5852C16.6083 11.6095 16.3605 10.808 15.8649 10.1807C15.3693 9.55341 14.7188 9.04618 13.9134 8.65897C14.9821 8.78288 15.9888 8.96486 16.9336 9.20493C17.8784 9.445 18.645 9.71991 19.2336 10.0297C19.7447 10.324 20.1474 10.6879 20.4417 11.1216C20.7359 11.5553 20.8831 12.0431 20.8831 12.5852V14.7691H16.6083ZM7.78005 7.31149C6.75782 7.31149 5.92146 6.98624 5.27096 6.33574C4.62045 5.68523 4.2952 4.84887 4.2952 3.82665C4.2952 2.80442 4.62045 1.96806 5.27096 1.31755C5.92146 0.66705 6.75782 0.341797 7.78005 0.341797C8.80227 0.341797 9.63863 0.66705 10.2891 1.31755C10.9396 1.96806 11.2649 2.80442 11.2649 3.82665C11.2649 4.84887 10.9396 5.68523 10.2891 6.33574C9.63863 6.98624 8.80227 7.31149 7.78005 7.31149V7.31149ZM16.1437 3.82665C16.1437 4.84887 15.8184 5.68523 15.1679 6.33574C14.5174 6.98624 13.6811 7.31149 12.6588 7.31149C12.4885 7.31149 12.2987 7.29988 12.0896 7.27665C11.8806 7.25341 11.6908 7.21082 11.5205 7.14887C11.8922 6.76166 12.1748 6.2854 12.3684 5.72008C12.562 5.15476 12.6588 4.52362 12.6588 3.82665C12.6588 3.12968 12.562 2.51402 12.3684 1.97968C12.1748 1.44533 11.8922 0.953582 11.5205 0.504423C11.6908 0.457959 11.8806 0.419238 12.0896 0.388262C12.2987 0.357285 12.4885 0.341797 12.6588 0.341797C13.6811 0.341797 14.5174 0.66705 15.1679 1.31755C15.8184 1.96806 16.1437 2.80442 16.1437 3.82665V3.82665ZM1.73964 13.3751H13.8205V12.5852C13.8205 12.3374 13.7469 12.0974 13.5997 11.865C13.4526 11.6327 13.2706 11.4701 13.0538 11.3772C11.9386 10.8815 11.0016 10.5485 10.2427 10.3782C9.48375 10.2078 8.66287 10.1226 7.78005 10.1226C6.89722 10.1226 6.07247 10.2078 5.3058 10.3782C4.53914 10.5485 3.59823 10.8815 2.48308 11.3772C2.26624 11.4701 2.08813 11.6327 1.94873 11.865C1.80934 12.0974 1.73964 12.3374 1.73964 12.5852V13.3751ZM7.78005 5.91756C8.38409 5.91756 8.88358 5.72008 9.27853 5.32513C9.67348 4.93018 9.87096 4.43069 9.87096 3.82665C9.87096 3.22261 9.67348 2.72311 9.27853 2.32816C8.88358 1.93321 8.38409 1.73574 7.78005 1.73574C7.17601 1.73574 6.67651 1.93321 6.28156 2.32816C5.88661 2.72311 5.68914 3.22261 5.68914 3.82665C5.68914 4.43069 5.88661 4.93018 6.28156 5.32513C6.67651 5.72008 7.17601 5.91756 7.78005 5.91756Z" fill="white"/>
</svg>
