<svg width="36" height="36" viewBox="0 0 36 36" fill="none" xmlns="http://www.w3.org/2000/svg">
<path d="M5.25 33C4.65 33 4.125 32.775 3.675 32.325C3.225 31.875 3 31.35 3 30.75V14.25C3 13.65 3.225 13.125 3.675 12.675C4.125 12.225 4.65 12 5.25 12H30.75C31.35 12 31.875 12.225 32.325 12.675C32.775 13.125 33 13.65 33 14.25V30.75C33 31.35 32.775 31.875 32.325 32.325C31.875 32.775 31.35 33 30.75 33H5.25ZM5.25 30.75H30.75V14.25H5.25V30.75ZM15.2625 28.0875L23.55 22.5L15.2625 16.95V28.0875ZM5.5875 9.75V7.5H30.4125V9.75H5.5875ZM10.5 5.25V3H25.5V5.25H10.5ZM5.25 30.75V14.25V30.75Z" fill="white"/>
</svg>
